<svg width="28" height="28" viewBox="0 0 28 28" fill="none" xmlns="http://www.w3.org/2000/svg">
<g clip-path="url(#clip0_16_573)">
<path d="M10.5 16.0417C7.77 16.0417 2.33333 17.4067 2.33333 20.125V22.1667H18.6667V20.125C18.6667 17.4067 13.23 16.0417 10.5 16.0417ZM5.06333 19.8333C6.04333 19.1567 8.41167 18.375 10.5 18.375C12.5883 18.375 14.9567 19.1567 15.9367 19.8333H5.06333ZM10.5 14C12.7517 14 14.5833 12.1683 14.5833 9.91667C14.5833 7.665 12.7517 5.83333 10.5 5.83333C8.24833 5.83333 6.41667 7.665 6.41667 9.91667C6.41667 12.1683 8.24833 14 10.5 14ZM10.5 8.16667C11.4683 8.16667 12.25 8.94833 12.25 9.91667C12.25 10.885 11.4683 11.6667 10.5 11.6667C9.53167 11.6667 8.75 10.885 8.75 9.91667C8.75 8.94833 9.53167 8.16667 10.5 8.16667ZM18.7133 16.1117C20.0667 17.0917 21 18.3983 21 20.125V22.1667H25.6667V20.125C25.6667 17.7683 21.5833 16.4267 18.7133 16.1117V16.1117ZM17.5 14C19.7517 14 21.5833 12.1683 21.5833 9.91667C21.5833 7.665 19.7517 5.83333 17.5 5.83333C16.87 5.83333 16.2867 5.985 15.75 6.24167C16.485 7.28 16.9167 8.55167 16.9167 9.91667C16.9167 11.2817 16.485 12.5533 15.75 13.5917C16.2867 13.8483 16.87 14 17.5 14Z" fill="#323232"/>
</g>
<defs>
<clipPath id="clip0_16_573">
<rect width="28" height="28" fill="white"/>
</clipPath>
</defs>
</svg>
