<svg width="28" height="28" viewBox="0 0 28 28" fill="none" xmlns="http://www.w3.org/2000/svg">
<g clip-path="url(#clip0_5_533)">
<path d="M25.6667 4.66667V4.08333C25.6667 2.47333 24.36 1.16667 22.75 1.16667C21.14 1.16667 19.8333 2.47333 19.8333 4.08333V4.66667C19.1917 4.66667 18.6667 5.19167 18.6667 5.83333V10.5C18.6667 11.1417 19.1917 11.6667 19.8333 11.6667H25.6667C26.3083 11.6667 26.8333 11.1417 26.8333 10.5V5.83333C26.8333 5.19167 26.3083 4.66667 25.6667 4.66667ZM24.7333 4.66667H20.7667V4.08333C20.7667 2.98667 21.6533 2.1 22.75 2.1C23.8467 2.1 24.7333 2.98667 24.7333 4.08333V4.66667ZM22.0733 14C22.12 14.385 22.1667 14.77 22.1667 15.1667C22.1667 17.5933 21.2333 19.7983 19.7167 21.455C19.4133 20.51 18.55 19.8333 17.5 19.8333H16.3333V16.3333C16.3333 15.6917 15.8083 15.1667 15.1667 15.1667H8.16667V12.8333H10.5C11.1417 12.8333 11.6667 12.3083 11.6667 11.6667V9.33333H14C15.2833 9.33333 16.3333 8.28333 16.3333 7V4.03667C15.225 3.68667 14.0583 3.5 12.8333 3.5C6.39333 3.5 1.16667 8.72667 1.16667 15.1667C1.16667 21.6067 6.39333 26.8333 12.8333 26.8333C19.2733 26.8333 24.5 21.6067 24.5 15.1667C24.5 14.77 24.4767 14.385 24.4417 14H22.0733ZM11.6667 24.4183C7.05833 23.8467 3.5 19.9267 3.5 15.1667C3.5 14.4433 3.59333 13.755 3.745 13.0783L9.33333 18.6667V19.8333C9.33333 21.1167 10.3833 22.1667 11.6667 22.1667V24.4183Z" fill="#323232"/>
</g>
<defs>
<clipPath id="clip0_5_533">
<rect width="28" height="28" fill="white"/>
</clipPath>
</defs>
</svg>
