<svg width="35" height="28" viewBox="0 0 35 28" fill="none" xmlns="http://www.w3.org/2000/svg">
<g clip-path="url(#clip0_1_632)">
<path d="M13.0042 15.747C9.62314 15.747 2.88983 17.0604 2.88983 19.6759V21.6403H23.1186V19.6759C23.1186 17.0604 16.3853 15.747 13.0042 15.747ZM6.27093 19.3953C7.48466 18.7442 10.4178 17.9921 13.0042 17.9921C15.5906 17.9921 18.5238 18.7442 19.7375 19.3953H6.27093ZM13.0042 13.7826C15.7929 13.7826 18.0614 12.0202 18.0614 9.85377C18.0614 7.68728 15.7929 5.92491 13.0042 5.92491C10.2156 5.92491 7.94703 7.68728 7.94703 9.85377C7.94703 12.0202 10.2156 13.7826 13.0042 13.7826ZM13.0042 8.16997C14.2035 8.16997 15.1716 8.92207 15.1716 9.85377C15.1716 10.7855 14.2035 11.5376 13.0042 11.5376C11.805 11.5376 10.8369 10.7855 10.8369 9.85377C10.8369 8.92207 11.805 8.16997 13.0042 8.16997ZM23.1764 15.8144C24.8525 16.7573 26.0085 18.0146 26.0085 19.6759V21.6403H31.7881V19.6759C31.7881 17.4084 26.7309 16.1175 23.1764 15.8144V15.8144ZM21.6737 13.7826C24.4624 13.7826 26.7309 12.0202 26.7309 9.85377C26.7309 7.68728 24.4624 5.92491 21.6737 5.92491C20.8935 5.92491 20.171 6.07084 19.5064 6.3178C20.4167 7.31685 20.9513 8.54041 20.9513 9.85377C20.9513 11.1671 20.4167 12.3907 19.5064 13.3897C20.171 13.6367 20.8935 13.7826 21.6737 13.7826Z" fill="#323232"/>
</g>
<defs>
<clipPath id="clip0_1_632">
<rect width="34.678" height="26.9407" fill="white" transform="translate(0 0.312263)"/>
</clipPath>
</defs>
</svg>
