<svg width="32" height="32" viewBox="0 0 32 32" fill="none" xmlns="http://www.w3.org/2000/svg">
<g clip-path="url(#clip0_1_775)">
<path d="M16 29.3333C17.4667 29.3333 18.6667 28.1333 18.6667 26.6667H13.3333C13.3333 28.1333 14.5333 29.3333 16 29.3333ZM24 21.3333V14.6667C24 10.5733 21.8267 7.14667 18 6.24V5.33333C18 4.22667 17.1067 3.33333 16 3.33333C14.8933 3.33333 14 4.22667 14 5.33333V6.24C10.1867 7.14667 8 10.56 8 14.6667V21.3333L5.33333 24V25.3333H26.6667V24L24 21.3333ZM21.3333 22.6667H10.6667V14.6667C10.6667 11.36 12.68 8.66667 16 8.66667C19.32 8.66667 21.3333 11.36 21.3333 14.6667V22.6667Z" fill="#323232"/>
</g>
<defs>
<clipPath id="clip0_1_775">
<rect width="32" height="32" fill="white"/>
</clipPath>
</defs>
</svg>
