<svg width="35" height="28" viewBox="0 0 35 28" fill="none" xmlns="http://www.w3.org/2000/svg">
<g clip-path="url(#clip0_1_689)">
<path d="M27.7204 16.2727V7.29251C27.7204 6.05772 26.42 5.04745 24.8306 5.04745H4.60174C3.01234 5.04745 1.71191 6.05772 1.71191 7.29251V16.2727C1.71191 17.5075 3.01234 18.5178 4.60174 18.5178H24.8306C26.42 18.5178 27.7204 17.5075 27.7204 16.2727ZM24.8306 16.2727H4.60174V7.29251H24.8306V16.2727ZM14.7162 8.41504C12.3176 8.41504 10.3814 9.91923 10.3814 11.7826C10.3814 13.646 12.3176 15.1502 14.7162 15.1502C17.1147 15.1502 19.0509 13.646 19.0509 11.7826C19.0509 9.91923 17.1147 8.41504 14.7162 8.41504ZM33.5001 8.41504V20.7629C33.5001 21.9976 32.1996 23.0079 30.6102 23.0079H6.04666C6.04666 21.8854 6.04666 21.9976 6.04666 20.7629H30.6102V8.41504C32.1996 8.41504 32.0551 8.41504 33.5001 8.41504Z" fill="#323232"/>
</g>
<defs>
<clipPath id="clip0_1_689">
<rect width="34.678" height="26.9407" fill="white" transform="translate(0.266998 0.557327)"/>
</clipPath>
</defs>
</svg>
