<svg width="28" height="37" viewBox="0 0 28 37" fill="none" xmlns="http://www.w3.org/2000/svg">
<path d="M21.7778 16.0295V0H6.22222V8.01476H0V36.0664H12.4444V28.0517H15.5556V36.0664H28V16.0295H21.7778ZM6.22222 32.059H3.11111V28.0517H6.22222V32.059ZM6.22222 24.0443H3.11111V20.0369H6.22222V24.0443ZM6.22222 16.0295H3.11111V12.0221H6.22222V16.0295ZM12.4444 24.0443H9.33333V20.0369H12.4444V24.0443ZM12.4444 16.0295H9.33333V12.0221H12.4444V16.0295ZM12.4444 8.01476H9.33333V4.00738H12.4444V8.01476ZM18.6667 24.0443H15.5556V20.0369H18.6667V24.0443ZM18.6667 16.0295H15.5556V12.0221H18.6667V16.0295ZM18.6667 8.01476H15.5556V4.00738H18.6667V8.01476ZM24.8889 32.059H21.7778V28.0517H24.8889V32.059ZM24.8889 24.0443H21.7778V20.0369H24.8889V24.0443Z" fill="#323232"/>
</svg>
