<?xml version="1.0" encoding="UTF-8"?>
<svg version="1.1" xmlns="http://www.w3.org/2000/svg" width="1200" height="1088">
<path d="M0 0 C352.44 0 704.88 0 1068 0 C1068 352.77 1068 705.54 1068 1069 C715.56 1069 363.12 1069 0 1069 C0 716.23 0 363.46 0 0 Z " fill="#003E6B" transform="translate(8,8)"/>
<path d="M0 0 C161.89131535 0 161.89131535 0 190.2109375 28.0546875 C201.18213059 39.41797821 207.66159186 52.61237042 211 68 C211.30744141 69.31484375 211.30744141 69.31484375 211.62109375 70.65625 C216.41223947 95.23978389 213.40086045 122.42869424 200.8515625 144.27734375 C192.25720332 156.91504069 180.5682076 166.19010113 167 173 C169.73492871 174.82328581 172.48195045 176.20958344 175.4453125 177.61328125 C183.10498315 181.27352977 189.69735815 185.23205881 196 191 C196.69351563 191.60199219 197.38703125 192.20398438 198.1015625 192.82421875 C211.6467505 205.29729728 220.13384956 225.70888792 221.10772705 244.02619934 C221.16392495 246.24706018 221.19086189 248.46595964 221.203125 250.6875 C221.20882507 251.50766602 221.21452515 252.32783203 221.22039795 253.17285156 C221.22980167 254.9041212 221.23636341 256.63540837 221.24023438 258.36669922 C221.24986966 260.96485282 221.28090778 263.56219009 221.3125 266.16015625 C221.47345272 291.22730676 214.9735196 317.19000754 197.33569336 335.80517578 C169.90050185 363.45940143 132.11844884 364.99359736 95 367 C63.65 367 32.3 367 0 367 C0 245.89 0 124.78 0 0 Z " fill="#FEFEFE" transform="translate(116,351)"/>
<path d="M0 0 C0.65935547 0.21962402 1.31871094 0.43924805 1.99804688 0.66552734 C15.31059088 5.21795345 25.99156377 12.17086801 36 22 C36.75023437 22.72574219 37.50046875 23.45148438 38.2734375 24.19921875 C53.65110698 40.08947721 61.15809126 61.57590734 66.375 82.625 C66.73319824 84.05199219 66.73319824 84.05199219 67.09863281 85.5078125 C69.27883771 94.89752273 70.11124963 104.41984928 71 114 C64.6325462 114.57588197 58.26449445 115.14477208 51.89599609 115.70898438 C49.7330945 115.90141449 47.57033056 116.09539884 45.40771484 116.29101562 C42.28518701 116.57318043 39.16219399 116.8496069 36.0390625 117.125 C35.08448151 117.21249512 34.12990051 117.29999023 33.14639282 117.39013672 C27.08094344 117.91800002 21.0875018 118.10406868 15 118 C14.84966309 117.32646484 14.69932617 116.65292969 14.54443359 115.95898438 C7.46082354 81.64404119 7.46082354 81.64404119 -14.26171875 55.47265625 C-24.34180997 49.56835834 -35.7915121 48.21862655 -47.16796875 50.6875 C-62.93544787 56.02486952 -70.6564641 66.7867047 -78 81 C-86.83110295 99.62149503 -88.2548346 121.79847179 -90 142 C-90.08373871 142.84888794 -90.16747742 143.69777588 -90.25375366 144.5723877 C-90.99611397 152.52451234 -91.14557823 160.40715623 -91.1328125 168.390625 C-91.13348903 169.7476198 -91.13446194 171.10461449 -91.13571167 172.46160889 C-91.13717424 175.28870817 -91.13508232 178.11577556 -91.13037109 180.94287109 C-91.12469593 184.51751776 -91.1280455 188.09208968 -91.13380432 191.66673374 C-92.131445 250.8054748 -92.131445 250.8054748 -68.7734375 303.24609375 C-59.68009677 312.23928756 -49.68470678 316.2798383 -36.98925781 316.24438477 C-24.81684041 316.02107783 -14.55110981 312.45884066 -5.78125 303.8125 C9.16570486 286.33606047 13.22319108 262.77146313 18 241 C23.5463477 241.53009751 29.09238681 242.06329072 34.63818359 242.59912109 C36.51733729 242.78027138 38.396567 242.96063516 40.27587891 243.14013672 C51.87708641 244.24884795 63.44573898 245.47245268 75 247 C70.28027155 285.21828892 58.78428192 326.37564208 27.77734375 351.82421875 C9.05374339 365.7340721 -12.47327328 371.38503552 -35.55273438 371.31567383 C-37.73358722 371.31252371 -39.91306443 371.33603414 -42.09375 371.36132812 C-66.00384576 371.46940054 -88.50662374 364.55791971 -107 349 C-107.5671875 348.5771875 -108.134375 348.154375 -108.71875 347.71875 C-133.05520749 328.89243383 -143.90910687 292.5870255 -148.83081055 263.47509766 C-149.18439436 261.39328523 -149.55869504 259.31599267 -149.93554688 257.23828125 C-154.14331261 233.4762295 -154.44108574 209.68222434 -154.4375 185.625 C-154.43826412 184.79592888 -154.43902824 183.96685776 -154.43981552 183.11266327 C-154.45936087 157.46367317 -153.87646031 132.2652261 -149 107 C-148.79181641 105.89914062 -148.58363281 104.79828125 -148.36914062 103.6640625 C-147.19326264 97.68192593 -145.74484904 91.83974251 -144 86 C-143.78794922 85.2584668 -143.57589844 84.51693359 -143.35742188 83.75292969 C-134.23066121 52.2179283 -117.1439406 23.95695315 -88.5390625 6.85546875 C-63.03409686 -6.51633995 -27.29138421 -9.14431235 0 0 Z " fill="#FDFEFE" transform="translate(529,351)"/>
<path d="M0 0 C70.29 0 140.58 0 213 0 C213 18.48 213 36.96 213 56 C187.92 56 162.84 56 137 56 C137 158.96 137 261.92 137 368 C116.87 368 96.74 368 76 368 C76 265.04 76 162.08 76 56 C50.92 56 25.84 56 0 56 C0 37.52 0 19.04 0 0 Z " fill="#FAFBFC" transform="translate(765,350)"/>
<path d="M0 0 C20.13 0 40.26 0 61 0 C61 121.44 61 242.88 61 368 C40.87 368 20.74 368 0 368 C0 246.56 0 125.12 0 0 Z " fill="#FDFDFE" transform="translate(655,350)"/>
<path d="M0 0 C59.93014938 0 59.93014938 0 69.125 3.6875 C69.80876709 3.9558667 70.49253418 4.2242334 71.19702148 4.50073242 C83.00062526 9.29362601 90.83504732 16.42385254 96.2265625 28.10546875 C102.76339337 44.11740295 102.61369796 66.76245196 96.41796875 82.77734375 C91.46914782 94.02466404 84.51157893 101.42437602 73 106 C58.20001701 111.37645772 43.02916834 110.44981736 27.5 110.25 C18.425 110.1675 9.35 110.085 0 110 C0 73.7 0 37.4 0 0 Z " fill="#013E6B" transform="translate(175,552)"/>
<path d="M0 0 C67.58579882 0 67.58579882 0 82 14 C86.57875923 19.46851812 89.09719641 25.18276124 91 32 C91.33 32.99 91.66 33.98 92 35 C93.44535728 50.69957041 92.2372999 68.26635627 82 81 C72.25181472 91.77533005 61.19302958 94.95863652 47 98 C31.49 98 15.98 98 0 98 C0 65.66 0 33.32 0 0 Z " fill="#013E6B" transform="translate(175,405)"/>
<path d="M0 0 C6.6 0 13.2 0 20 0 C22.97 12.54 25.94 25.08 29 38 C31.97 25.46 34.94 12.92 38 0 C44.27 0 50.54 0 57 0 C57 22.77 57 45.54 57 69 C52.71 69 48.42 69 44 69 C43.67 56.13 43.34 43.26 43 30 C40.4092651 42.08603542 40.4092651 42.08603542 37.82446289 54.17333984 C37.49907612 55.68591876 37.17348776 57.19845433 36.84765625 58.7109375 C36.59622864 59.89393433 36.59622864 59.89393433 36.33972168 61.10083008 C35.1140718 66.7718564 35.1140718 66.7718564 34 69 C30.37 69 26.74 69 23 69 C18.545 50.19 18.545 50.19 14 31 C13.67 43.54 13.34 56.08 13 69 C8.71 69 4.42 69 0 69 C0 46.23 0 23.46 0 0 Z " fill="#003D6A" transform="translate(1132,16)"/>
<path d="M0 0 C13.53 0 27.06 0 41 0 C41 3.96 41 7.92 41 12 C36.71 12 32.42 12 28 12 C28 30.81 28 49.62 28 69 C23.05 69 18.1 69 13 69 C13 50.19 13 31.38 13 12 C8.71 12 4.42 12 0 12 C0 8.04 0 4.08 0 0 Z " fill="#003D6A" transform="translate(1084,16)"/>
</svg>
